<svg id="visual" viewBox="0 0 900 600" width="900" height="600" xmlns="http://www.w3.org/2000/svg" xmlns:xlink="http://www.w3.org/1999/xlink" version="1.1"><rect width="900" height="600" fill="#000000"></rect><g><g transform="translate(782 200)"><path d="M92 -29.1C104 7.1 88.1 53.2 54.6 78.2C21.1 103.3 -29.9 107.3 -62.4 84.1C-94.9 60.9 -108.9 10.5 -95.4 -27.7C-81.9 -65.9 -41 -91.9 -0.5 -91.8C40 -91.6 80 -65.3 92 -29.1Z" stroke="#ff0000" fill="none" stroke-width="20"></path></g><g transform="translate(113 59)"><path d="M86.8 -27.9C96.8 2.5 78.3 42.4 49.7 61.5C21.1 80.6 -17.5 78.9 -43.7 59.9C-70 40.9 -83.9 4.5 -74.6 -25C-65.2 -54.6 -32.6 -77.3 2.9 -78.3C38.4 -79.2 76.8 -58.3 86.8 -27.9Z" stroke="#ff0000" fill="none" stroke-width="20"></path></g><g transform="translate(389 586)"><path d="M81.4 -25.9C92.8 8.6 80.6 51.4 49.8 75.5C18.9 99.5 -30.6 104.9 -63 82.4C-95.4 59.9 -110.6 9.5 -97.2 -27.7C-83.9 -64.9 -41.9 -89 -3.5 -87.8C35 -86.7 70 -60.4 81.4 -25.9Z" stroke="#ff0000" fill="none" stroke-width="20"></path></g></g></svg>